<svg width="454" height="487" viewBox="0 0 454 487" fill="none" xmlns="http://www.w3.org/2000/svg">
<path d="M283.051 161.083C289.696 153.867 294.632 145.382 297.526 136.2C300.42 127.019 301.204 117.355 299.826 107.861C298.448 98.367 294.94 89.2643 289.539 81.1673C284.137 73.0704 276.968 66.1677 268.515 60.9254C272.886 54.4984 275.203 47.0077 275.186 39.3581C275.186 17.7293 257.129 0.193359 234.809 0.193359C225.997 0.250531 217.445 3.03379 210.45 8.12098C203.455 13.2082 198.399 20.3217 196.048 28.3827C190.796 19.835 183.282 12.7375 174.252 7.79317C165.221 2.84883 154.986 0.229086 144.56 0.193359C111.355 0.193359 84.432 26.2521 84.432 58.5648C84.4267 65.4351 85.6725 72.2544 88.1143 78.722C86.8869 78.63 85.6755 78.538 84.432 78.538C57.7675 78.538 36.1581 99.5076 36.1581 125.382C36.1581 126.915 36.255 128.555 36.4165 130.119C25.5669 134.737 16.3644 142.247 9.92763 151.736C3.49084 161.225 0.0970026 172.284 0.158662 183.57C0.158662 215.76 27.0008 241.819 60.0932 241.819C63.575 241.817 67.05 241.524 70.4779 240.945C70.3003 242.876 70.1872 244.838 70.1872 246.816C70.1872 282.869 100.308 312.1 137.438 312.1C151.198 312.094 164.612 307.999 175.795 300.389C184.786 307.883 196.341 312.018 208.306 312.024C236.069 312.024 258.551 290.196 258.551 263.248C258.551 262.083 258.454 260.934 258.373 259.799H258.551C288.267 259.799 312.364 236.408 312.364 207.575C312.409 198.025 309.702 188.645 304.535 180.451C299.369 172.256 291.939 165.558 283.051 161.083Z" fill="url(#paint0_linear_48_66)"/>
<path d="M173.647 91.7515H165.782V455.377H173.647V91.7515Z" fill="#DCE7FF"/>
<path d="M229.558 132.792L165.068 198.891L170.839 203.963L235.329 137.864L229.558 132.792Z" fill="#DCE7FF"/>
<path d="M103.429 208.148L98.7394 214.141L165.605 261.273L170.294 255.28L103.429 208.148Z" fill="#DCE7FF"/>
<path d="M198.406 234.254C188.305 224.055 182.675 210.589 182.659 196.592C182.716 186.935 185.408 177.458 190.475 169.084C195.542 160.71 202.81 153.725 211.569 148.812C207.64 143.403 205.533 136.989 205.528 130.418C205.528 112.024 221.84 97.0016 241.98 97.0016C249.753 96.9296 257.345 99.2273 263.64 103.557C269.934 107.886 274.598 114.019 276.946 121.052C281.913 113.635 288.785 107.538 296.915 103.331C305.045 99.1241 314.167 96.9463 323.427 97.0016C353.419 97.0016 377.741 119.29 377.741 146.789C377.755 152.665 376.639 158.493 374.446 163.988C375.545 163.911 376.643 163.835 377.773 163.835C401.838 163.835 421.38 181.723 421.38 203.796C421.378 205.148 421.302 206.499 421.154 207.843C430.745 211.531 438.968 217.838 444.781 225.964C450.594 234.09 453.736 243.67 453.81 253.492C453.81 280.915 429.584 303.126 399.674 303.126C396.534 303.125 393.401 302.874 390.306 302.375C390.468 304.03 390.565 305.701 390.565 307.387C390.565 338.152 363.383 363.091 329.839 363.091C317.542 363.098 305.521 359.63 295.309 353.128C287.034 359.575 276.653 363.087 265.947 363.061C240.882 363.061 220.565 344.421 220.565 321.444C220.565 320.447 220.661 319.466 220.726 318.5H220.565C193.739 318.5 171.984 298.573 171.984 273.94C172.047 265.644 174.556 257.53 179.225 250.517C183.895 243.503 190.539 237.87 198.406 234.254V234.254Z" fill="url(#paint1_linear_48_66)"/>
<path d="M307.243 175.99H296.423V486.537H307.243V175.99Z" fill="#DCE7FF"/>
<path d="M247.598 209.068L240.586 215.592L298.823 271.977L305.835 265.452L247.598 209.068Z" fill="#DCE7FF"/>
<path d="M359.896 273.123L299.521 313.337L305.161 320.965L365.537 280.752L359.896 273.123Z" fill="#DCE7FF"/>
<path d="M402.516 153.296H396.621V173.806H402.516V153.296Z" fill="#70DDFF"/>
<path d="M402.516 147.701H347.507V153.296H402.516V147.701Z" fill="#70DDFF"/>
<path d="M398.139 203.743C408.308 203.743 416.551 195.919 416.551 186.268C416.551 176.617 408.308 168.793 398.139 168.793C387.971 168.793 379.728 176.617 379.728 186.268C379.728 195.919 387.971 203.743 398.139 203.743Z" fill="#FFEB3B"/>
<path d="M353.402 93.6216H347.507V371.469H353.402V93.6216Z" fill="#70DDFF"/>
<path d="M350.011 96.9328C358.11 96.9328 364.675 90.7013 364.675 83.0144C364.675 75.3274 358.11 69.0959 350.011 69.0959C341.912 69.0959 335.346 75.3274 335.346 83.0144C335.346 90.7013 341.912 96.9328 350.011 96.9328Z" fill="#4F79A4"/>
<path d="M426.096 168.211H371.087V173.806H426.096V168.211Z" fill="#70DDFF"/>
<path d="M349.672 451.668C339.351 451.668 330.921 454.013 330.921 444.218V373.017C330.934 368.299 332.913 363.778 336.426 360.441C339.939 357.103 344.701 355.221 349.672 355.205V355.205C354.642 355.221 359.404 357.103 362.917 360.441C366.43 363.778 368.41 368.299 368.422 373.017V444.218C368.422 454.013 359.992 451.668 349.672 451.668Z" fill="#70DDFF"/>
<defs>
<linearGradient id="paint0_linear_48_66" x1="73.5" y1="34" x2="177.5" y2="304" gradientUnits="userSpaceOnUse">
<stop stop-color="#0470DC"/>
<stop offset="1" stop-color="#70DDFF"/>
</linearGradient>
<linearGradient id="paint1_linear_48_66" x1="269" y1="173.029" x2="386" y2="444.029" gradientUnits="userSpaceOnUse">
<stop stop-color="#0470DC"/>
<stop offset="1" stop-color="#6BD7FD"/>
<stop offset="1" stop-color="#70DDFF"/>
</linearGradient>
</defs>
</svg>
