<svg width="100" height="34" viewBox="0 0 100 34" fill="none" xmlns="http://www.w3.org/2000/svg">
<ellipse opacity="0.2" cx="13" cy="30.5" rx="13" ry="3.5" fill="white"/>
<path fill-rule="evenodd" clip-rule="evenodd" d="M12.5 24C12.5 24 22 16 22 9.5C22 4.25329 17.7467 0 12.5 0C7.25329 0 3 4.25329 3 9.5C3 16.5 12.5 24 12.5 24ZM12.5 13C14.9853 13 17 10.9853 17 8.5C17 6.01472 14.9853 4 12.5 4C10.0147 4 8 6.01472 8 8.5C8 10.9853 10.0147 13 12.5 13Z" fill="white"/>
<path d="M38.486 23.266C37.1433 23.266 35.9527 22.981 34.914 22.411C33.888 21.841 33.09 21.0367 32.52 19.998C31.95 18.9467 31.665 17.7307 31.665 16.35C31.665 14.982 31.9563 13.7787 32.539 12.74C33.1343 11.6887 33.9513 10.878 34.99 10.308C36.0413 9.72533 37.232 9.434 38.562 9.434C39.8413 9.434 40.9877 9.69367 42.001 10.213L41.735 12.531C41.1903 12.2903 40.6647 12.1067 40.158 11.98C39.664 11.8407 39.1257 11.771 38.543 11.771C37.1877 11.771 36.1427 12.189 35.408 13.025C34.686 13.861 34.325 14.9693 34.325 16.35C34.325 17.7307 34.6797 18.839 35.389 19.675C36.111 20.511 37.1433 20.929 38.486 20.929C39.0813 20.929 39.626 20.8657 40.12 20.739C40.6267 20.6123 41.165 20.4223 41.735 20.169L42.001 22.487C40.899 23.0063 39.7273 23.266 38.486 23.266ZM43.6801 9.7H46.0361V12.056H43.6801V9.7ZM43.6801 13.5H46.0361V23H43.6801V13.5ZM51.3416 23.19C50.5056 23.19 49.8722 22.9493 49.4416 22.468C49.0109 21.974 48.7956 21.385 48.7956 20.701V15.438H47.4466L47.6556 13.5H48.7956V11.41L51.1516 11.163V13.5H53.2416V15.438H51.1516V19.732C51.1516 20.2387 51.1769 20.5933 51.2276 20.796C51.2909 20.986 51.4112 21.1127 51.5886 21.176C51.7786 21.2267 52.1142 21.252 52.5956 21.252H53.2416L53.0326 23.19H51.3416ZM57.6448 22.373L53.6928 13.5H56.3148L58.7468 19.618L61.2168 13.5H63.8388L57.8918 27.598H55.5358L57.6448 22.373ZM75.7863 23L74.6463 14.089L71.2453 20.207L67.8253 14.108L66.6853 23H64.1583L66.0013 9.7H67.9963L71.2453 15.761L74.4753 9.7H76.4703L78.3133 23H75.7863ZM82.1921 23.19C81.4068 23.19 80.7481 22.9367 80.2161 22.43C79.6968 21.9107 79.4371 21.214 79.4371 20.34C79.4371 19.5167 79.7348 18.858 80.3301 18.364C80.9254 17.8573 81.6284 17.5027 82.4391 17.3C83.2498 17.0847 84.0288 16.9643 84.7761 16.939C84.7508 16.3817 84.6051 15.9827 84.3391 15.742C84.0858 15.5013 83.6614 15.381 83.0661 15.381C82.6481 15.381 82.2364 15.438 81.8311 15.552C81.4384 15.666 80.9824 15.8497 80.4631 16.103L80.2541 14.184C81.4068 13.6267 82.5594 13.348 83.7121 13.348C84.8268 13.348 85.6754 13.652 86.2581 14.26C86.8534 14.868 87.1511 15.837 87.1511 17.167V19.732C87.1511 20.2133 87.1701 20.5617 87.2081 20.777C87.2588 20.9797 87.3348 21.1127 87.4361 21.176C87.5501 21.2267 87.7338 21.252 87.9871 21.252H88.2911L88.0821 23.19H87.2271C86.7078 23.19 86.2708 23.095 85.9161 22.905C85.5614 22.7023 85.2891 22.43 85.0991 22.088C84.7951 22.43 84.3771 22.7023 83.8451 22.905C83.3258 23.095 82.7748 23.19 82.1921 23.19ZM83.1801 21.385C83.4208 21.385 83.6931 21.328 83.9971 21.214C84.3011 21.0873 84.5671 20.9163 84.7951 20.701V18.535C84.0351 18.573 83.3638 18.7377 82.7811 19.029C82.1984 19.3203 81.9071 19.7257 81.9071 20.245C81.9071 20.6377 82.0084 20.929 82.2111 21.119C82.4138 21.2963 82.7368 21.385 83.1801 21.385ZM94.562 13.348C95.4613 13.348 96.234 13.5697 96.88 14.013C97.526 14.4563 98.0136 15.0517 98.343 15.799C98.6723 16.5463 98.837 17.3697 98.837 18.269C98.837 19.1683 98.6723 19.9917 98.343 20.739C98.0136 21.4863 97.526 22.0817 96.88 22.525C96.234 22.9683 95.4613 23.19 94.562 23.19C93.992 23.19 93.5043 23.1267 93.099 23C92.7063 22.886 92.3263 22.696 91.959 22.43V27.598H89.603V13.5H91.503L91.75 14.374C92.1553 14.032 92.5796 13.7787 93.023 13.614C93.4663 13.4367 93.9793 13.348 94.562 13.348ZM94.201 21.252C94.8976 21.252 95.4423 20.9797 95.835 20.435C96.2276 19.8903 96.424 19.1683 96.424 18.269C96.424 17.3697 96.2276 16.6477 95.835 16.103C95.4423 15.5583 94.8976 15.286 94.201 15.286C93.4156 15.286 92.8266 15.552 92.434 16.084C92.0413 16.616 91.845 17.3443 91.845 18.269C91.845 19.1937 92.0413 19.922 92.434 20.454C92.8266 20.986 93.4156 21.252 94.201 21.252Z" fill="white"/>
</svg>
