<svg width="96" height="383" viewBox="0 0 96 383" fill="none" xmlns="http://www.w3.org/2000/svg">
<path d="M29.8439 84.2959H23.9492V104.806H29.8439V84.2959Z" fill="#70DDFF"/>
<path d="M78.9578 78.7009H23.9492V84.2959H78.9578V78.7009Z" fill="#70DDFF"/>
<path d="M28.3097 134.743C38.4782 134.743 46.7213 126.919 46.7213 117.268C46.7213 107.617 38.4782 99.7932 28.3097 99.7932C18.1412 99.7932 9.89795 107.617 9.89795 117.268C9.89795 126.919 18.1412 134.743 28.3097 134.743Z" fill="#FFEB3B"/>
<path d="M78.9578 24.6216H73.0626V302.469H78.9578V24.6216Z" fill="#70DDFF"/>
<path d="M76.4543 27.9328C84.5534 27.9328 91.119 21.7013 91.119 14.0144C91.119 6.32743 84.5534 0.0959473 76.4543 0.0959473C68.3551 0.0959473 61.7894 6.32743 61.7894 14.0144C61.7894 21.7013 68.3551 27.9328 76.4543 27.9328Z" fill="#4F79A4"/>
<path d="M55.3774 99.2107H0.369141V104.806H55.3774V99.2107Z" fill="#70DDFF"/>
<path d="M76.7771 382.668C87.0972 382.668 95.5278 385.013 95.5278 375.218V304.017C95.5151 299.299 93.5359 294.778 90.0226 291.441C86.5094 288.103 81.7476 286.221 76.7771 286.205V286.205C71.8066 286.221 67.0448 288.103 63.5316 291.441C60.0184 294.778 58.0393 299.299 58.0265 304.017V375.218C58.0265 385.013 66.3924 382.668 76.7771 382.668Z" fill="#70DDFF"/>
</svg>
